<svg width="36" height="36" viewBox="0 0 36 36" fill="none" xmlns="http://www.w3.org/2000/svg">
<circle cx="18" cy="18" r="17.5" fill="#D8DCE6" fill-opacity="0.3" stroke="#D8DCE6"/>
<path d="M25.875 9.75H10.125C9.42904 9.75074 8.76179 10.0275 8.26967 10.5197C7.77755 11.0118 7.50074 11.679 7.5 12.375V23.625C7.50074 24.321 7.77755 24.9882 8.26967 25.4803C8.76179 25.9725 9.42904 26.2493 10.125 26.25H25.875C26.571 26.2493 27.2382 25.9725 27.7303 25.4803C28.2225 24.9882 28.4993 24.321 28.5 23.625V12.375C28.4993 11.679 28.2225 11.0118 27.7303 10.5197C27.2382 10.0275 26.571 9.75074 25.875 9.75V9.75ZM25.2103 14.092L18.4603 19.342C18.3287 19.4444 18.1667 19.4999 18 19.4999C17.8333 19.4999 17.6713 19.4444 17.5397 19.342L10.7897 14.092C10.7104 14.0321 10.6438 13.9571 10.5937 13.8712C10.5437 13.7854 10.5112 13.6904 10.4981 13.5919C10.4851 13.4934 10.4918 13.3933 10.5178 13.2973C10.5438 13.2014 10.5886 13.1116 10.6496 13.0332C10.7106 12.9547 10.7866 12.8892 10.8731 12.8403C10.9597 12.7915 11.0551 12.7603 11.1538 12.7487C11.2525 12.737 11.3525 12.7451 11.448 12.7725C11.5436 12.7998 11.6327 12.8459 11.7103 12.908L18 17.7998L24.2897 12.908C24.447 12.7892 24.6447 12.7371 24.8401 12.763C25.0354 12.7888 25.2128 12.8905 25.3338 13.0461C25.4547 13.2017 25.5096 13.3987 25.4865 13.5944C25.4634 13.7901 25.3642 13.9689 25.2103 14.092Z" fill="#1B1B1B"/>
</svg>
