<svg width="36" height="36" viewBox="0 0 36 36" fill="none" xmlns="http://www.w3.org/2000/svg">
<circle cx="18" cy="18" r="17.5" fill="#D8DCE6" fill-opacity="0.3" stroke="#D8DCE6"/>
<path d="M23.9062 11.8125H12.0938C11.5718 11.8131 11.0713 12.0207 10.7023 12.3898C10.3332 12.7588 10.1256 13.2593 10.125 13.7812V22.2188C10.1256 22.7407 10.3332 23.2412 10.7023 23.6102C11.0713 23.9793 11.5718 24.1869 12.0938 24.1875H23.9062C24.4282 24.1869 24.9287 23.9793 25.2977 23.6102C25.6668 23.2412 25.8744 22.7407 25.875 22.2188V13.7812C25.8744 13.2593 25.6668 12.7588 25.2977 12.3898C24.9287 12.0207 24.4282 11.8131 23.9062 11.8125V11.8125ZM23.4077 15.069L18.3452 19.0065C18.2465 19.0833 18.125 19.1249 18 19.1249C17.875 19.1249 17.7535 19.0833 17.6548 19.0065L12.5923 15.069C12.5328 15.0241 12.4828 14.9678 12.4453 14.9034C12.4078 14.839 12.3834 14.7678 12.3736 14.6939C12.3638 14.62 12.3688 14.5449 12.3883 14.473C12.4078 14.4011 12.4414 14.3337 12.4872 14.2749C12.5329 14.216 12.5899 14.1669 12.6548 14.1302C12.7198 14.0936 12.7913 14.0703 12.8653 14.0615C12.9393 14.0528 13.0144 14.0588 13.086 14.0794C13.1577 14.0999 13.2245 14.1344 13.2827 14.181L18 17.8499L22.7173 14.181C22.8352 14.0919 22.9835 14.0528 23.13 14.0722C23.2766 14.0916 23.4096 14.1679 23.5003 14.2846C23.591 14.4013 23.6322 14.549 23.6149 14.6958C23.5975 14.8426 23.5231 14.9767 23.4077 15.069Z" fill="#1B1B1B"/>
</svg>
